<svg width="24" height="16" viewBox="0 0 24 16" fill="none" xmlns="http://www.w3.org/2000/svg">
<path d="M18.9999 16H5.99992C2.87429 16.0019 0.270809 13.6038 0.0162787 10.4886C-0.238251 7.37334 1.94144 4.58453 5.02592 4.07899C6.44563 1.56188 9.11003 0.00350327 11.9999 -6.54712e-05C13.8019 -0.00687692 15.5524 0.601292 16.9619 1.72399C18.346 2.82185 19.33 4.34497 19.7619 6.05799C22.3458 6.45502 24.1877 8.77551 23.9879 11.3821C23.7882 13.9887 21.6141 16.0014 18.9999 16ZM11.9999 1.99998C9.83163 2.00255 7.83259 3.17209 6.76792 5.06099L6.29992 5.89999L5.35091 6.05499C3.3012 6.39839 1.85592 8.25429 2.02513 10.3257C2.19433 12.3971 3.92164 13.9938 5.99992 14H18.9999C20.5685 14.0016 21.8735 12.7946 21.9941 11.2307C22.1147 9.66673 21.0102 8.27389 19.4599 8.03499L18.1439 7.83499L17.8219 6.54299C17.1572 3.8698 14.7545 1.99495 11.9999 1.99998ZM13.4499 12H10.5499V8.99999H7.99992L11.9999 4.99999L15.9999 8.99999H13.4499V12Z" fill="#2E3A59"/>
</svg>
