<svg width="1171" height="1112" viewBox="0 0 1171 1112" fill="none" xmlns="http://www.w3.org/2000/svg">
<path opacity="0.5" d="M466.635 37.6942C346.697 138.217 328.111 328.298 246.881 468.527C218.604 517.322 182.067 560.992 163.004 615.123C119.238 739.026 179.472 879.572 260.093 977.981C298.536 1024.93 343.44 1067.94 397.77 1087.72C439.55 1102.94 484.348 1103.57 528.325 1103.97L1298.79 1111.9C1384.81 1112.77 1480.39 1109.62 1542.24 1043.21C1584.87 997.478 1602.18 930.692 1616.88 866.944C1634.93 788.613 1651.3 703.546 1623.2 628.94C1591.11 543.582 1509.96 495.21 1459.55 421.555C1377.74 302.223 1379.62 121.731 1275.44 26.4664C1226.8 -17.9959 1162.62 -35.4321 1100.08 -44.1502C982.184 -60.6089 870.506 -29.5408 754.725 -33.8734C655.756 -37.572 548.739 -31.1259 466.635 37.6942Z" fill="#E9F7FF" fill-opacity="0.86"/>
<ellipse cx="124" cy="406.509" rx="124" ry="128.509" fill="#EE2CFF" fill-opacity="0.11"/>
<ellipse cx="226" cy="159.5" rx="186" ry="186.5" fill="#E9F7FF" fill-opacity="0.55"/>
</svg>
